<svg width="98" height="35" viewBox="0 0 98 35" fill="none" xmlns="http://www.w3.org/2000/svg">
<path d="M59.9197 28.9593C59.7672 28.9593 59.6436 28.8357 59.6436 28.6832V1.07038C59.6436 0.917876 59.7672 0.79425 59.9197 0.79425H63.9745C64.127 0.79425 64.2506 0.917877 64.2506 1.07038V16.7066C64.2506 16.9628 64.5693 17.0808 64.7362 16.8865L71.4251 9.09856C71.4776 9.03749 71.5541 9.00235 71.6346 9.00235H76.7511C76.9913 9.00235 77.117 9.28794 76.9546 9.46505L68.6615 18.5129C68.5649 18.6183 68.5648 18.7801 68.6613 18.8857L77.4454 28.4969C77.6073 28.6741 77.4816 28.9593 77.2415 28.9593H72.0439C71.9625 28.9593 71.8852 28.9234 71.8327 28.8611L64.7379 20.4441C64.5719 20.2472 64.2506 20.3645 64.2506 20.622V28.6832C64.2506 28.8357 64.127 28.9593 63.9745 28.9593H59.9197Z" fill="white"/>
<path d="M49.9071 29.5115C48.3864 29.5115 46.9724 29.2425 45.6651 28.7044C44.3845 28.1394 43.3307 27.3457 42.5036 26.3233C41.7616 25.3754 41.3176 24.2772 41.1719 23.0286C41.1532 22.8688 41.2805 22.7315 41.4414 22.7315H45.472C45.6066 22.7315 45.7206 22.829 45.7506 22.9603C45.9418 23.7981 46.3802 24.4886 47.0657 25.0319C47.8394 25.5969 48.7732 25.8794 49.867 25.8794C50.8542 25.8794 51.6679 25.6641 52.3082 25.2337C52.9751 24.8032 53.3086 24.2113 53.3086 23.458C53.3086 22.8122 53.0819 22.3145 52.6283 21.9647C52.1748 21.5881 51.6145 21.3056 50.9475 21.1172C50.2806 20.902 49.5869 20.7137 48.8666 20.5522C47.6127 20.2563 46.4388 19.8931 45.345 19.4626C44.2778 19.0321 43.4107 18.4268 42.7437 17.6465C42.0768 16.8663 41.7433 15.8439 41.7433 14.5794C41.7433 13.3149 42.0901 12.2387 42.7838 11.3508C43.4774 10.4361 44.3978 9.73653 45.545 9.25225C46.7189 8.76796 48.0262 8.52582 49.4669 8.52582C51.6545 8.52582 53.4687 9.07737 54.9094 10.1805C56.3076 11.2316 57.1124 12.747 57.3235 14.7265C57.3406 14.8863 57.2135 15.0233 57.0528 15.0233H53.2743C53.1342 15.0233 53.0174 14.9181 52.9926 14.7801C52.8494 13.9837 52.4746 13.3652 51.868 12.9247C51.2277 12.4405 50.3873 12.1983 49.3468 12.1983C48.4397 12.1983 47.6794 12.3732 47.0657 12.723C46.4788 13.0727 46.1853 13.6377 46.1853 14.418C46.1853 14.9561 46.3988 15.4 46.8256 15.7497C47.2792 16.0995 47.8394 16.3955 48.5064 16.6376C49.2001 16.8528 49.8804 17.0412 50.5474 17.2026C51.908 17.5255 53.1219 17.9021 54.189 18.3326C55.2562 18.7631 56.0966 19.3684 56.7102 20.1487C57.3505 20.9289 57.684 21.9916 57.7107 23.3369C57.7107 24.6283 57.3638 25.7314 56.6702 26.6462C55.9765 27.5609 55.0428 28.2739 53.8689 28.7851C52.695 29.2694 51.3744 29.5115 49.9071 29.5115Z" fill="white"/>
<path fill-rule="evenodd" clip-rule="evenodd" d="M83.0832 9.07809C83.2357 9.07809 83.3594 9.20172 83.3594 9.35422V20.6619C83.3594 23.1229 85.3514 25.1178 87.8086 25.1178C90.2657 25.1178 92.2578 23.1229 92.2578 20.6619V9.35422C92.2578 9.20172 92.3814 9.07809 92.5339 9.07809H96.6447C96.7972 9.07809 96.9208 9.20172 96.9208 9.35422V20.6619C96.9208 25.7019 92.8412 29.7877 87.8086 29.7877C82.776 29.7877 78.6964 25.7019 78.6964 20.6619V9.35422C78.6964 9.20172 78.82 9.07809 78.9725 9.07809H83.0832Z" fill="white"/>
<path fill-rule="evenodd" clip-rule="evenodd" d="M25.3725 9.07809C25.525 9.07809 25.6487 9.20172 25.6487 9.35422V20.6619C25.6487 23.1229 27.6407 25.1178 30.0979 25.1178C32.555 25.1178 34.5471 23.1229 34.5471 20.6619V9.35422C34.5471 9.20172 34.6707 9.07809 34.8232 9.07809H38.934C39.0865 9.07809 39.2101 9.20172 39.2101 9.35422V20.6619C39.2101 25.7019 35.1305 29.7877 30.0979 29.7877C25.0653 29.7877 20.9857 25.7019 20.9857 20.6619V9.35422C20.9857 9.20172 21.1093 9.07809 21.2618 9.07809H25.3725Z" fill="#2D8DFF"/>
<path d="M17.5068 6.15314C15.1697 4.45541 12.3616 3.54636 9.48291 3.55561C6.60422 3.56487 3.80191 4.49196 1.47556 6.20469L2.82254 8.07138C4.75967 6.64521 7.09313 5.87323 9.49019 5.86552C11.8873 5.85782 14.2255 6.61477 16.1716 8.02846L17.5068 6.15314Z" fill="#2D8DFF"/>
<path d="M22.037 31.6081C24.3977 33.3059 27.2341 34.2149 30.1419 34.2056C33.0497 34.1964 35.8803 33.2693 38.2301 31.5566L36.8695 29.6899C34.9128 31.1161 32.5558 31.888 30.1345 31.8957C27.7133 31.9034 25.3514 31.1465 23.3856 29.7328L22.037 31.6081Z" fill="#2D8DFF"/>
<path fill-rule="evenodd" clip-rule="evenodd" d="M14.1843 28.9593C14.0318 28.9593 13.9082 28.8357 13.9082 28.6832L13.9082 17.3755C13.9082 14.9145 11.9463 12.9195 9.5264 12.9195C7.10646 12.9195 5.1446 14.9145 5.1446 17.3755L5.1446 28.6832C5.1446 28.8357 5.02097 28.9593 4.86847 28.9593L0.828373 28.9593C0.675871 28.9593 0.552244 28.8357 0.552244 28.6832L0.552245 17.3755C0.552246 12.3355 4.57005 8.24971 9.5264 8.24971C14.4828 8.24971 18.5006 12.3355 18.5006 17.3755L18.5005 28.6832C18.5005 28.8357 18.3769 28.9593 18.2244 28.9593L14.1843 28.9593Z" fill="#2D8DFF"/>
</svg>
